<svg width="21" height="21" viewBox="0 0 21 21" fill="none" xmlns="http://www.w3.org/2000/svg">
<g filter="url(#filter0_d_101_563)">
<g clip-path="url(#clip0_101_563)">
<rect x="1.76733" y="1.7674" width="16" height="16" rx="8" fill="#FFC120"/>
<path d="M8.0074 10.8874C7.20661 10.8874 6.0874 11.6074 6.0874 11.6074V7.44741L9.7674 4.96741L11.8474 6.32741V5.44741H12.7274V6.88741L13.5274 7.52741V11.6074C13.5274 11.6074 12.5604 10.9203 11.8474 10.8874C11.0475 10.8505 10.7282 11.6074 9.9274 11.6074C9.12661 11.6074 8.8082 10.8874 8.0074 10.8874Z" fill="#F8F8F8" stroke="#F8F8F8" stroke-width="0.160673"/>
<path d="M2.64722 14.4074C2.64722 14.4074 3.3265 13.9177 4.08722 13.9284C4.8185 13.9386 5.11768 14.5169 5.84722 14.5684C6.75474 14.6324 7.17789 13.8998 8.08722 13.9284C8.90688 13.9541 9.26721 14.5782 10.0872 14.5684C10.8775 14.5588 11.2171 13.907 12.0072 13.9284C12.7383 13.9481 13.0361 14.5486 13.7672 14.5684C14.5573 14.5897 14.8974 13.8986 15.6872 13.9284C16.3488 13.9533 16.8872 14.3274 16.8872 14.3274" stroke="#F8F8F8" stroke-width="0.160673"/>
<path d="M2.32739 13.7674C2.32739 13.7674 3.32668 13.1176 4.08739 13.1283C4.81868 13.1386 5.11785 13.7168 5.84739 13.7683C6.75491 13.8324 7.17806 13.0997 8.08739 13.1283C8.90705 13.1541 9.26739 13.7782 10.0874 13.7683C10.8777 13.7588 11.2173 13.107 12.0074 13.1283C12.7385 13.1481 13.0363 13.7486 13.7674 13.7683C14.5575 13.7897 14.8976 13.0986 15.6874 13.1283C16.3489 13.1532 17.2074 13.6074 17.2074 13.6074" stroke="#F8F8F8" stroke-width="0.160673"/>
<path d="M2.0874 13.1274C2.0874 13.1274 3.32669 12.3176 4.0874 12.3283C4.81869 12.3386 5.11786 12.9168 5.8474 12.9683C6.75492 13.0324 7.17807 12.2998 8.0874 12.3283C8.90706 12.3541 9.2674 12.9782 10.0874 12.9683C10.8777 12.9588 11.2173 12.307 12.0074 12.3283C12.7385 12.3481 13.0363 12.9486 13.7674 12.9683C14.5575 12.9897 14.8976 12.2986 15.6874 12.3283C16.3489 12.3532 17.4474 12.9674 17.4474 12.9674" stroke="#F8F8F8" stroke-width="0.160673"/>
<path d="M1.76733 12.4874C1.76733 12.4874 3.32662 11.5177 4.08733 11.5283C4.81862 11.5386 5.11779 12.1168 5.84733 12.1683C6.75485 12.2324 7.178 11.4998 8.08733 11.5283C8.90699 11.5541 9.26733 12.1782 10.0873 12.1683C10.8776 12.1588 11.2173 11.507 12.0073 11.5283C12.7384 11.5481 13.0362 12.1486 13.7673 12.1683C14.5574 12.1897 14.8975 11.4986 15.6873 11.5283C16.3489 11.5533 17.7673 12.2474 17.7673 12.2474" stroke="#F8F8F8" stroke-width="0.160673"/>
</g>
</g>
<defs>
<filter id="filter0_d_101_563" x="-7.26581e-05" y="-1.16229e-05" width="20.8202" height="20.8202" filterUnits="userSpaceOnUse" color-interpolation-filters="sRGB">
<feFlood flood-opacity="0" result="BackgroundImageFix"/>
<feColorMatrix in="SourceAlpha" type="matrix" values="0 0 0 0 0 0 0 0 0 0 0 0 0 0 0 0 0 0 127 0" result="hardAlpha"/>
<feOffset dx="0.642693" dy="0.642693"/>
<feGaussianBlur stdDeviation="1.20505"/>
<feComposite in2="hardAlpha" operator="out"/>
<feColorMatrix type="matrix" values="0 0 0 0 0 0 0 0 0 0 0 0 0 0 0 0 0 0 0.2 0"/>
<feBlend mode="normal" in2="BackgroundImageFix" result="effect1_dropShadow_101_563"/>
<feBlend mode="normal" in="SourceGraphic" in2="effect1_dropShadow_101_563" result="shape"/>
</filter>
<clipPath id="clip0_101_563">
<rect x="1.76733" y="1.7674" width="16" height="16" rx="8" fill="white"/>
</clipPath>
</defs>
</svg>
