<svg width="12" height="12" viewBox="0 0 12 12" fill="none" xmlns="http://www.w3.org/2000/svg">
<path d="M9.00004 3.58C8.97004 3.575 8.93504 3.575 8.90504 3.58C8.21504 3.555 7.66504 2.99 7.66504 2.29C7.66504 1.575 8.24004 1 8.95504 1C9.67004 1 10.245 1.58 10.245 2.29C10.24 2.99 9.69004 3.555 9.00004 3.58Z" stroke="#7C7C7C" stroke-linecap="round" stroke-linejoin="round"/>
<path d="M8.48522 7.22008C9.17022 7.33508 9.92522 7.21508 10.4552 6.86008C11.1602 6.39008 11.1602 5.62008 10.4552 5.15008C9.92022 4.79508 9.15521 4.67508 8.47021 4.79508" stroke="#7C7C7C" stroke-linecap="round" stroke-linejoin="round"/>
<path d="M2.98524 3.58C3.01524 3.575 3.05023 3.575 3.08023 3.58C3.77023 3.555 4.32023 2.99 4.32023 2.29C4.32023 1.575 3.74524 1 3.03024 1C2.31524 1 1.74023 1.58 1.74023 2.29C1.74523 2.99 2.29524 3.555 2.98524 3.58Z" stroke="#7C7C7C" stroke-linecap="round" stroke-linejoin="round"/>
<path d="M3.50021 7.21996C2.81521 7.33496 2.06021 7.21496 1.53021 6.85996C0.825215 6.38996 0.825215 5.61996 1.53021 5.14996C2.06521 4.79496 2.83021 4.67496 3.51521 4.79496" stroke="#7C7C7C" stroke-linecap="round" stroke-linejoin="round"/>
<path d="M6.00004 7.31511C5.97004 7.31011 5.93504 7.31011 5.90504 7.31511C5.21504 7.29011 4.66504 6.72511 4.66504 6.02511C4.66504 5.31011 5.24004 4.73511 5.95504 4.73511C6.67004 4.73511 7.24504 5.31511 7.24504 6.02511C7.24004 6.72511 6.69004 7.29511 6.00004 7.31511Z" stroke="#7C7C7C" stroke-linecap="round" stroke-linejoin="round"/>
<path d="M4.54486 8.89005C3.83986 9.36005 3.83986 10.1301 4.54486 10.6001C5.34486 11.1351 6.65486 11.1351 7.45486 10.6001C8.15986 10.1301 8.15986 9.36005 7.45486 8.89005C6.65986 8.36005 5.34486 8.36005 4.54486 8.89005Z" stroke="#7C7C7C" stroke-linecap="round" stroke-linejoin="round"/>
</svg>
