<svg width="517" height="517" viewBox="0 0 517 517" fill="none" xmlns="http://www.w3.org/2000/svg">
<g filter="url(#filter0_i_225_4721)">
<circle cx="258.406" cy="258.406" r="258.406" fill="#0526AE"/>
</g>
<path d="M371.444 128.57C371.601 123.376 367.518 119.037 362.324 118.88C357.129 118.722 352.791 122.806 352.633 128L362.039 128.285L371.444 128.57ZM361.411 148.986L370.817 149.271L371.444 128.57L362.039 128.285L352.633 128L352.006 148.701L361.411 148.986Z" fill="#292929"/>
<path d="M294.469 77.7433C294.627 72.5489 290.544 68.2104 285.349 68.053C280.155 67.8956 275.816 71.9789 275.659 77.1732L285.064 77.4583L294.469 77.7433ZM284.437 98.1593L293.842 98.4443L294.469 77.7433L285.064 77.4583L275.659 77.1732L275.032 97.8743L284.437 98.1593Z" fill="#292929"/>
<path d="M326.282 284.484L326.91 263.783" stroke="#292929" stroke-width="18.8191" stroke-linecap="round"/>
<path d="M192.039 189.134H203.958L224.659 150.241L252.888 224.89L285.072 78.728L326.282 285.739L362.039 128.285L392.149 234.3L414.105 189.134H477.463" stroke="#292929" stroke-width="18.8191" stroke-linecap="round"/>
<path d="M111.117 226.145L59.0505 130.167C59.0505 130.167 47.6176 144.796 42.1133 155.259C32.8052 172.953 28.9399 192.898 27.058 204.189C25.176 215.48 22.7326 230.47 22.0395 247.473C21.2906 265.846 21.1984 276.336 23.9214 294.521C28.04 322.027 32.7202 337.766 45.8771 362.27C55.7522 380.661 63.7144 389.655 77.2423 405.554C97.8006 429.714 109.588 444.512 136.836 460.757C164.584 477.299 183.384 481.793 215.249 487.103C237.513 490.814 250.473 492.168 272.961 490.24C291.391 488.66 319.382 480.83 319.382 480.83L277.353 398.653L230.932 425.628L217.759 460.757L215.249 419.982L265.434 379.834L232.814 339.687L239.087 280.72L207.094 263.783L176.356 291.384L192.666 247.473L160.047 167.805L99.8253 161.532L133.7 228.654L113.626 277.584L154.401 317.731L151.892 394.262L138.091 323.377L104.216 296.403L72.2239 335.296L111.117 226.145Z" fill="#FC4B08" stroke="#FC4B08" stroke-width="1.25461"/>
<path d="M484.431 384.752L374.802 393.378L437.087 484.007L484.431 384.752ZM319.991 497.764L325.386 505.613L419.187 441.147L413.793 433.298L408.399 425.45L314.597 489.916L319.991 497.764Z" fill="#0526AE"/>
<path d="M259.161 338.432C259.161 338.432 272.795 328.551 282.999 327.141C301.883 324.532 307.846 348.363 326.91 348.469C346.195 348.576 352.166 326.812 371.449 327.141C390.071 327.458 395.481 348.58 414.105 348.469C432.511 348.36 437.749 326.283 456.135 327.141C465.346 327.571 478.718 334.041 478.718 334.041M282.999 369.797C282.999 369.797 306.925 395.402 326.91 396.144C346.182 396.86 352.166 374.487 371.449 374.816C390.071 375.133 395.485 396.566 414.105 396.144C432.97 395.717 456.135 372.307 456.135 372.307" stroke="#D1EAFF" stroke-width="18.8191"/>
<path d="M340.71 473.931L318.755 434.41L338.201 431.274C338.201 431.274 345.697 424.335 351.374 421.237C358.379 417.415 362.841 415.005 370.821 414.964C377.119 414.931 380.668 416.358 386.503 418.728C396.082 422.618 407.832 434.41 407.832 434.41C407.832 434.41 390.026 449.938 377.094 457.621C363.707 465.573 340.71 473.931 340.71 473.931Z" fill="#D1EAFF" stroke="#D1EAFF" stroke-width="1.25461"/>
<defs>
<filter id="filter0_i_225_4721" x="0" y="0" width="521.891" height="521.891" filterUnits="userSpaceOnUse" color-interpolation-filters="sRGB">
<feFlood flood-opacity="0" result="BackgroundImageFix"/>
<feBlend mode="normal" in="SourceGraphic" in2="BackgroundImageFix" result="shape"/>
<feColorMatrix in="SourceAlpha" type="matrix" values="0 0 0 0 0 0 0 0 0 0 0 0 0 0 0 0 0 0 127 0" result="hardAlpha"/>
<feOffset dx="5.07923" dy="5.07923"/>
<feGaussianBlur stdDeviation="20.3169"/>
<feComposite in2="hardAlpha" operator="arithmetic" k2="-1" k3="1"/>
<feColorMatrix type="matrix" values="0 0 0 0 1 0 0 0 0 1 0 0 0 0 1 0 0 0 0.3 0"/>
<feBlend mode="normal" in2="shape" result="effect1_innerShadow_225_4721"/>
</filter>
</defs>
</svg>
